<?xml version="1.0" encoding="utf-8"?>
<!DOCTYPE svg PUBLIC "-//W3C//DTD SVG 1.1//EN" "http://www.w3.org/Graphics/SVG/1.1/DTD/svg11.dtd">
<svg version="1.1" id="Layer_1" xmlns="http://www.w3.org/2000/svg" xmlns:xlink="http://www.w3.org/1999/xlink" x="0px" y="0px" viewBox="0 0 44 40" enable-background="new 0 0 44 40" xml:space="preserve">
	<path opacity="0.8" fill="#FAAC17" d="M0.7,22.6l9.6,15.2c0.9,1.4,2.4,2.2,4,2.2h15.4v0c1.6,0,3.1-0.8,4-2.2l9.6-15.2c1-1.6,1-3.6,0-5.1L33.7,2.2c-0.9-1.4-2.4-2.2-4-2.2L14.3,0v0c-1.6,0-3.1,0.8-4,2.2L0.7,17.4C-0.2,19-0.2,21,0.7,22.6z"/>
	<path fill="#FFFFFF" d="M23.5,22v2.6l-4.8-3.7V19l4.8-3.6V18l-2.7,1.9L23.5,22z"/>
</svg>
