<?xml version="1.0" encoding="utf-8"?>
<!DOCTYPE svg PUBLIC "-//W3C//DTD SVG 1.1//EN" "http://www.w3.org/Graphics/SVG/1.1/DTD/svg11.dtd">
<svg version="1.1" id="Layer_1" xmlns="http://www.w3.org/2000/svg" xmlns:xlink="http://www.w3.org/1999/xlink" x="0px" y="0px" viewBox="0 0 792 1224" enable-background="new 0 0 792 1224" xml:space="preserve">
	<path fill="#BF211E" d="M242.9,981.6c-29,0-63.4-21.1-76.6-44.9L10.6,656.9c-13.2-26.4-13.2-66,0-92.4l155.8-277.2c13.2-23.8,50.2-44.9,76.6-44.9h303.6c29,0,63.4,21.1,76.6,44.9l155.8,277.2c13.2,26.4,13.2,66,0,92.4L623,934.1c-13.2,26.4-50.2,44.9-76.6,44.9H242.9V981.6z"/>
	<path fill="#FFFFFF" d="M507.8,453.3c-56.7,0-111.8,68-111.8,68s-55.1-68-111.8-68c-56.7,0-110.8,28.3-110.8,111.8c0,59.2,55.6,111.3,55.6,111.3L396,842.7l166.9-166.4c0,0,55.6-52,55.6-111.3C618.5,481.6,564.4,453.3,507.8,453.3z"/>
</svg>
