<?xml version="1.0" encoding="utf-8"?>
<!DOCTYPE svg PUBLIC "-//W3C//DTD SVG 1.1//EN" "http://www.w3.org/Graphics/SVG/1.1/DTD/svg11.dtd">
<svg version="1.1" id="Layer_1" xmlns="http://www.w3.org/2000/svg" xmlns:xlink="http://www.w3.org/1999/xlink" x="0px" y="0px" viewBox="0 0 792 1224" enable-background="new 0 0 792 1224" xml:space="preserve">
	<path fill="#FAAC17" d="M242.9,981.6c-29,0-63.4-21.1-76.6-44.9L10.6,656.9c-13.2-26.4-13.2-66,0-92.4l155.8-277.2c13.2-23.8,50.2-44.9,76.6-44.9h303.6c29,0,63.4,21.1,76.6,44.9l155.8,277.2c13.2,26.4,13.2,66,0,92.4L623,934.1c-13.2,26.4-50.2,44.9-76.6,44.9H242.9V981.6z"/>
	<path fill="#FFFFFF" d="M578.2,567.1c-2.6-5.3-7.9-5.3-10.6-5.3s-5.3,0-7.9,0H454.1c0,0-2.6,0-5.3-2.6s-2.6-2.6-2.6-5.3l-29-108.2c0-2.6-2.6-5.3-5.3-10.6c-2.6-2.6-7.9-7.9-15.8-7.9s-13.2,5.3-15.8,7.9c-2.6,2.6-2.6,5.3-5.3,10.6l-29,108.2c0,0-2.6,2.6-2.6,5.3c-2.6,0-5.3,0-5.3,0H232.3c-5.3,0-7.9,0-13.2,2.6c-2.6,0-5.3,2.6-7.9,5.3c0,2.6,0,7.9,0,10.6c0,5.3,2.6,10.6,5.3,13.2c2.6,2.6,5.3,5.3,7.9,5.3l84.5,55.4c2.6,0,5.3,5.3,2.6,7.9v2.6l-34.3,108.2c0,2.6-2.6,5.3-2.6,10.6c0,2.6,0,7.9,2.6,10.6c2.6,5.3,10.6,7.9,13.2,7.9c7.9,0,13.2-2.6,15.8-7.9l81.8-71.3c0,0,2.6-2.6,5.3-2.6c2.6,0,2.6,0,5.3,0l87.1,71.3c5.3,2.6,7.9,5.3,15.8,7.9l0,0c5.3,0,10.6-2.6,13.2-7.9c2.6-5.3,2.6-7.9,2.6-10.6s0-7.9-2.6-10.6l-37-108.2c0,0,0,0,0-2.6s2.6-7.9,2.6-7.9l84.5-55.4c2.6-2.6,5.3-2.6,7.9-5.3c2.6-2.6,5.3-5.3,5.3-13.2C580.8,575,580.8,569.8,578.2,567.1z"/>
</svg>
