<?xml version="1.0" encoding="utf-8"?>
<!DOCTYPE svg PUBLIC "-//W3C//DTD SVG 1.1//EN" "http://www.w3.org/Graphics/SVG/1.1/DTD/svg11.dtd">
<svg version="1.1" id="Слой_1" xmlns="http://www.w3.org/2000/svg" xmlns:xlink="http://www.w3.org/1999/xlink" x="0px" y="0px" viewBox="0 0 23.4 23.4" enable-background="new 0 0 23.4 23.4" xml:space="preserve">
	<path fill="#1CA6DE" d="M22.5,0H1C0.4,0,0,0.4,0,1v21.5c0,0.5,0.4,1,1,1h21.5c0.5,0,1-0.4,1-1V1C23.4,0.4,23,0,22.5,0L22.5,0zM7,20H3.5V8.8H7V20L7,20z M5.2,7.3c-1.1,0-2-0.9-2-2s0.9-2,2-2c1.1,0,2,0.9,2,2S6.3,7.3,5.2,7.3L5.2,7.3z M20,20h-3.5v-5.4c0-1.3,0-3-1.8-3c-1.8,0-2.1,1.4-2.1,2.9V20H9.1V8.8h3.3v1.5h0c0.5-0.9,1.6-1.8,3.3-1.8c3.5,0,4.2,2.3,4.2,5.3V20L20,20z"/>
</svg>
