<?xml version="1.0" encoding="utf-8"?>
<!DOCTYPE svg PUBLIC "-//W3C//DTD SVG 1.1//EN" "http://www.w3.org/Graphics/SVG/1.1/DTD/svg11.dtd">
<svg version="1.1" id="Слой_1" xmlns="http://www.w3.org/2000/svg" xmlns:xlink="http://www.w3.org/1999/xlink" x="0px" y="0px" viewBox="0 0 23.4 23.4" enable-background="new 0 0 23.4 23.4" xml:space="preserve">
	<path fill="#1CA6DE" d="M22.5,0H1C0.4,0,0,0.4,0,1v21.5c0,0.5,0.4,1,1,1h11.5v-8.8H9.5V11h2.9V8c0-3,1.9-4.5,4.6-4.5c1.3,0,2.4,0.1,2.7,0.1v3.2h-1.9c-1.5,0-1.8,0.7-1.8,1.7V11h3.7L19,14.6h-2.9l0.1,8.8h6.3c0.5,0,1-0.4,1-1V1C23.4,0.4,23,0,22.5,0L22.5,0z"/>
</svg>
