<?xml version="1.0" encoding="utf-8"?>
<!DOCTYPE svg PUBLIC "-//W3C//DTD SVG 1.1//EN" "http://www.w3.org/Graphics/SVG/1.1/DTD/svg11.dtd">
<svg version="1.1" id="Слой_1" xmlns="http://www.w3.org/2000/svg" xmlns:xlink="http://www.w3.org/1999/xlink" x="0px" y="0px" viewBox="0 0 23.4 19" enable-background="new 0 0 23.4 19" xml:space="preserve">
	<path fill="#1CA6DE" d="M23.4,2.3c-0.9,0.4-1.8,0.6-2.8,0.8c1-0.6,1.8-1.5,2.1-2.7c-0.9,0.5-2,1-3.1,1.2C18.9,0.6,17.6,0,16.2,0c-2.7,0-4.8,2.2-4.8,4.8c0,0.4,0,0.7,0.1,1.1c-4-0.2-7.5-2.1-9.9-5C1.2,1.6,1,2.4,1,3.3c0,1.7,0.8,3.1,2.1,4c-0.8,0-1.5-0.2-2.2-0.6v0.1c0,2.3,1.7,4.3,3.9,4.7c-0.4,0.1-0.8,0.2-1.3,0.2c-0.3,0-0.6,0-0.9-0.1c0.6,1.9,2.4,3.3,4.5,3.3c-1.6,1.3-3.7,2.1-6,2.1c-0.4,0-0.8,0-1.1-0.1C2.1,18.2,4.7,19,7.4,19c8.8,0,13.7-7.3,13.7-13.7c0-0.2,0-0.4,0-0.6C22,4.1,22.8,3.2,23.4,2.3L23.4,2.3z"/>
</svg>
