<?xml version="1.0" encoding="utf-8"?>
<svg version="1.1" id="Слой_1" xmlns="http://www.w3.org/2000/svg" xmlns:xlink="http://www.w3.org/1999/xlink" x="0px" y="0px"
	 viewBox="0 0 26.9 26.8" style="enable-background:new 0 0 26.9 26.8;" xml:space="preserve">
<style type="text/css">
	.st0{fill:#BFBFBF;}
</style>
<path class="st0" d="M26.5,22.6l-0.2-0.2L19.9,16c0.9-1.6,1.4-3.3,1.4-5.3C21.3,4.8,16.6,0,10.7,0h-0.1C4.8,0,0,4.7,0,10.6
	c0,5.9,4.7,10.7,10.6,10.7h0.1c2,0,3.8-0.5,5.4-1.4l6.5,6.5h0l0.2,0.2c0.5,0.5,1.3,0.5,1.8,0l2.1-2.1C27,23.9,27,23.1,26.5,22.6
	 M10.6,18.6c-4.4,0-7.9-3.6-7.9-8c0-4.3,3.6-7.9,7.9-7.9h0.1c2.1,0,4.1,0.9,5.6,2.4c1.5,1.5,2.3,3.5,2.3,5.6c0,2.1-0.8,4.1-2.3,5.6
	C14.7,17.8,12.8,18.6,10.6,18.6L10.6,18.6z"/>
</svg>
