<?xml version="1.0" encoding="utf-8"?>
<!DOCTYPE svg PUBLIC "-//W3C//DTD SVG 1.1//EN" "http://www.w3.org/Graphics/SVG/1.1/DTD/svg11.dtd">
<svg version="1.1" id="Слой_1" xmlns="http://www.w3.org/2000/svg" xmlns:xlink="http://www.w3.org/1999/xlink" x="0px" y="0px"
	 width="26.854px" height="26.833px" viewBox="0 0 26.854 26.833" enable-background="new 0 0 26.854 26.833" xml:space="preserve">
<g>
	<defs>
		<rect id="SVGID_1_" y="0" width="26.854" height="26.833"/>
	</defs>
	<clipPath id="SVGID_2_">
		<use xlink:href="#SVGID_1_"  overflow="visible"/>
	</clipPath>
	<path clip-path="url(#SVGID_2_)" fill="#FFFFFF" d="M26.487,22.613l-0.162-0.162l-6.474-6.475c0.9-1.551,1.422-3.345,1.434-5.267
		C21.323,4.832,16.589,0.037,10.711,0H10.64C4.796,0,0.038,4.72,0,10.574c-0.037,5.877,4.697,10.672,10.574,10.711h0.07
		c1.954,0,3.784-0.529,5.36-1.449l6.468,6.468h0.001l0.162,0.161c0.489,0.49,1.282,0.49,1.771,0l2.081-2.081
		C26.976,23.896,26.976,23.103,26.487,22.613 M10.592,18.57c-4.372-0.027-7.906-3.607-7.878-7.979
		c0.028-4.343,3.584-7.878,7.927-7.878h0.053c2.117,0.013,4.103,0.851,5.591,2.357c1.488,1.508,2.3,3.504,2.286,5.623
		c-0.013,2.107-0.845,4.088-2.34,5.574c-1.496,1.485-3.48,2.303-5.587,2.303H10.592z"/>
</g>
</svg>
