<?xml version="1.0" encoding="utf-8"?>
<!DOCTYPE svg PUBLIC "-//W3C//DTD SVG 1.1//EN" "http://www.w3.org/Graphics/SVG/1.1/DTD/svg11.dtd">
<svg version="1.1" id="Layer_1" xmlns="http://www.w3.org/2000/svg" xmlns:xlink="http://www.w3.org/1999/xlink" x="0px" y="0px" viewBox="0 0 792 1224" enable-background="new 0 0 792 1224" xml:space="preserve">
	<path fill="#002F40" d="M242.9,981.6c-29,0-63.4-21.1-76.6-44.9L10.6,656.9c-13.2-26.4-13.2-66,0-92.4l155.8-277.2c13.2-23.8,50.2-44.9,76.6-44.9h303.6c29,0,63.4,21.1,76.6,44.9l155.8,277.2c13.2,26.4,13.2,66,0,92.4L623,934.1c-13.2,26.4-50.2,44.9-76.6,44.9H242.9V981.6z"/>
	<path fill="#FFFFFF" d="M636,567.7v124.5c0,24.1-22,43.7-49.2,43.7H438.4l-19.6-65c0-2.6-3-5.3-5.9-10.6c-3-2.6-8.9-7.9-17.8-7.9c-8.9,0-14.9,5.3-17.8,7.9c-3,2.6-3,5.3-5.9,10.6l-19.6,65H202.5c-27.2,0-49.2-19.6-49.2-43.7V567.7c0-24.1,22-43.7,49.2-43.7h384.3C614,524,636,543.6,636,567.7z"/>
</svg>
