<?xml version="1.0" encoding="UTF-8" standalone="no"?>
<svg width="23px" height="15px" viewBox="0 0 23 15" version="1.1" xmlns="http://www.w3.org/2000/svg" xmlns:xlink="http://www.w3.org/1999/xlink">
    <!-- Generator: Sketch 41.2 (35397) - http://www.bohemiancoding.com/sketch -->
    <title>Page 1</title>
    <desc>Created with Sketch.</desc>
    <defs></defs>
    <g id="Tablet/Desktop" stroke="none" stroke-width="1" fill="none" fill-rule="evenodd">
        <g id="Default" transform="translate(-99.000000, -484.000000)">
            <g id="Group-5" transform="translate(82.000000, 342.000000)">
                <g id="Page-1" transform="translate(17.000000, 142.257812)">
                    <path d="M8.78271495,14.0905387 C8.69159201,14.0905387 8.60151647,14.0674962 8.52086743,14.0196654 L3.99195273,11.3997936 C3.89908414,11.3467259 3.8254177,11.2650294 3.77898341,11.1679713 L2.00889417,7.38759137 L0.815567742,7.93712203 C0.601551036,8.03557669 0.347733507,7.97936676 0.196211075,7.79816828 C0.0450377734,7.61801718 0.0328182225,7.35756618 0.166535023,7.16414815 L1.37347753,5.41710149 C1.47961305,5.26278602 1.65836763,5.17550352 1.84794523,5.19330915 C2.0347298,5.20971826 2.19847178,5.32283639 2.27877168,5.49321184 L4.65879108,10.5747994 L8.79249059,12.9670383 L16.6765449,8.74465978 L12.9233971,6.6799048 C12.8235459,6.62544052 12.746039,6.54060192 12.6982082,6.43725943 L10.4466687,1.4743761 L3.82262466,5.01455457 C3.56775974,5.15106441 3.25005142,5.0543554 3.11354158,4.80053787 C2.97703174,4.54567295 3.07408989,4.22761549 3.32755828,4.09145478 L10.4438756,0.286286622 C10.5720063,0.218206267 10.7221323,0.205986716 10.8596895,0.252421009 C10.9961993,0.298506173 11.1079209,0.399753881 11.1679713,0.531725031 L13.5794124,5.84513491 L18.0252341,8.29044161 C18.1928166,8.3833102 18.2979047,8.56066825 18.2965082,8.75129325 C18.2951117,8.94366389 18.1889761,9.11962543 18.0196481,9.20970097 L9.02954988,14.0280445 C8.95343953,14.0688927 8.86720442,14.0905387 8.78271495,14.0905387 Z" id="Fill-1" fill="#000000"></path>
                    <path d="M19.1993584,8.39971931 C19.1106794,8.39971931 19.0233969,8.37772412 18.9444935,8.33268635 L14.5870016,5.90658179 C14.4138332,5.80987277 14.3101415,5.6241356 14.3185207,5.42652801 C14.3265506,5.22892041 14.4466514,5.05156236 14.6278499,4.97091332 L17.581839,3.64805965 C17.7305684,3.58137581 17.9009439,3.58800928 18.0444363,3.66446876 L22.3443217,5.98583431 C22.5160937,6.07835376 22.6225783,6.25990138 22.6197853,6.45611245 C22.6155957,6.65267266 22.5038741,6.82968158 22.3279126,6.9159167 L19.4297842,8.34630242 C19.3575143,8.38191368 19.2786109,8.39971931 19.1993584,8.39971931 Z M16.0093574,5.50159096 L19.2129745,7.28529627 L20.9533877,6.42888031 L17.7742097,4.71185884 L16.0093574,5.50159096 Z" id="Fill-2" fill="#000000"></path>
                    <polygon id="Fill-3" fill="#000000" points="9.20830445 4.85220911 10.863879 3.95494494 10.1628259 2.31158991 8.50725136 3.20885408"></polygon>
                    <path d="M9.20830445,4.98313287 C9.19329186,4.98313287 9.17967579,4.98068896 9.1646632,4.9764994 C9.12905194,4.96427985 9.1018198,4.93844423 9.08680721,4.90422949 L8.38610324,3.25947793 C8.35852197,3.19663452 8.38470672,3.12576113 8.44475709,3.09294291 L10.1003317,2.19567874 C10.1328008,2.17787311 10.1712051,2.17508007 10.2050707,2.18764875 C10.2406819,2.1998683 10.2679141,2.22570392 10.2829267,2.25991866 L10.9839798,3.90467022 C11.0112119,3.96716449 10.9853763,4.03803789 10.9253259,4.07085611 L9.26975134,4.96812028 C9.25054919,4.97929244 9.22890313,4.98313287 9.20830445,4.98313287 Z M8.6751829,3.2661114 L9.27254438,4.66821759 L10.6962966,3.8962911 L10.0989352,2.49453404 L8.6751829,3.2661114 Z" id="Fill-4" fill="#160C0C"></path>
                </g>
            </g>
        </g>
    </g>
</svg>