<?xml version="1.0" encoding="UTF-8" standalone="no"?>
<svg width="21px" height="23px" viewBox="0 0 21 23" version="1.1" xmlns="http://www.w3.org/2000/svg" xmlns:xlink="http://www.w3.org/1999/xlink">
    <!-- Generator: Sketch 41.2 (35397) - http://www.bohemiancoding.com/sketch -->
    <title>Page 1</title>
    <desc>Created with Sketch.</desc>
    <defs></defs>
    <g id="Tablet/Desktop" stroke="none" stroke-width="1" fill="none" fill-rule="evenodd">
        <g id="Default" transform="translate(-100.000000, -352.000000)" fill="#000000">
            <g id="Group-5" transform="translate(82.000000, 342.000000)">
                <path d="M37.3932292,11.5729672 L38.6132396,11.5729672 L38.6132396,10.9118344 L28.7886297,10.9118344 L28.7886297,10 L28.1274969,10 L28.1274969,10.9118344 L18,10.9118344 L18,11.5729672 L19.2200104,11.5729672 L19.2200104,23.4663057 L27.7198865,23.4663057 L22.6303979,31.8656896 L23.1952698,32.2084208 L27.9758771,24.3189026 L27.9758771,32.0377604 L28.6373625,32.0377604 L28.6373625,24.3189026 L33.4165594,32.2084208 L33.9814312,31.8656896 L28.8933531,23.4663057 L37.3932292,23.4663057 L37.3932292,11.5729672 Z M36.7320964,22.8051729 L19.8811432,22.8051729 L19.8811432,11.5729672 L36.7320964,11.5729672 L36.7320964,22.8051729 Z" id="Page-1"></path>
            </g>
        </g>
    </g>
</svg>