<?xml version="1.0" encoding="UTF-8" standalone="no"?>
<svg width="22px" height="14px" viewBox="0 0 22 14" version="1.1" xmlns="http://www.w3.org/2000/svg" xmlns:xlink="http://www.w3.org/1999/xlink">
    <!-- Generator: Sketch 41.2 (35397) - http://www.bohemiancoding.com/sketch -->
    <title>Page 1</title>
    <desc>Created with Sketch.</desc>
    <defs></defs>
    <g id="Tablet/Desktop" stroke="none" stroke-width="1" fill="none" fill-rule="evenodd">
        <g id="Default" transform="translate(-100.000000, -441.000000)" fill="#000000">
            <g id="Group-5" transform="translate(82.000000, 342.000000)">
                <path d="M18.4329784,99.0009558 L18.4329784,99.0009558 C18.1867037,99.0245319 17.9987321,99.2313007 18.0000064,99.4788498 L18.0000064,112.381989 C18.0000064,112.645786 18.214103,112.859883 18.4779005,112.859883 L33.7705094,112.859883 C34.0343069,112.859883 34.2484035,112.645786 34.2484035,112.381989 L34.2484035,109.753571 L38.2655807,112.762711 C38.5793977,112.99433 39.024795,112.772906 39.0273438,112.381989 L39.0273438,99.4788498 C39.024795,99.0879325 38.5793977,98.8665083 38.2655807,99.0981276 L34.2484035,102.107267 L34.2484035,99.4788498 C34.2484035,99.2150523 34.0343069,99.0009558 33.7705094,99.0009558 L18.4779005,99.0009558 C18.4629265,98.9996814 18.4479524,98.9996814 18.4329784,99.0009558 Z M18.9557945,99.9567438 L33.2926154,99.9567438 L33.2926154,103.063055 C33.2951642,103.453972 33.7405614,103.675397 34.0543785,103.443777 L38.0715557,100.434638 L38.0715557,111.426201 L34.0543785,108.417061 C33.7405614,108.185442 33.2951642,108.406866 33.2926154,108.797783 L33.2926154,111.904095 L18.9557945,111.904095 L18.9557945,99.9567438 Z" id="Page-1"></path>
            </g>
        </g>
    </g>
</svg>