<?xml version="1.0" encoding="UTF-8" standalone="no"?>
<svg width="22px" height="14px" viewBox="0 0 22 14" version="1.1" xmlns="http://www.w3.org/2000/svg" xmlns:xlink="http://www.w3.org/1999/xlink">
    <!-- Generator: Sketch 41.2 (35397) - http://www.bohemiancoding.com/sketch -->
    <title>Artboard</title>
    <desc>Created with Sketch.</desc>
    <defs></defs>
    <g id="Page-1" stroke="none" stroke-width="1" fill="none" fill-rule="evenodd">
        <g id="Artboard" fill="#FFFFFF">
            <g id="video">
                <g id="Tablet/Desktop">
                    <g id="Default">
                        <g id="Group-5">
                            <path d="M0.4329784,0.0009558 L0.4329784,0.0009558 C0.1867037,0.0245319 -0.0012679,0.2313007 6.4e-06,0.4788498 L6.4e-06,13.381989 C6.4e-06,13.645786 0.214103,13.859883 0.4779005,13.859883 L15.7705094,13.859883 C16.0343069,13.859883 16.2484035,13.645786 16.2484035,13.381989 L16.2484035,10.753571 L20.2655807,13.762711 C20.5793977,13.99433 21.024795,13.772906 21.0273438,13.381989 L21.0273438,0.4788498 C21.024795,0.0879325 20.5793977,-0.1334917 20.2655807,0.0981276 L16.2484035,3.107267 L16.2484035,0.4788498 C16.2484035,0.2150523 16.0343069,0.0009558 15.7705094,0.0009558 L0.4779005,0.0009558 C0.4629265,-0.0003186 0.4479524,-0.0003186 0.4329784,0.0009558 Z M0.9557945,0.9567438 L15.2926154,0.9567438 L15.2926154,4.063055 C15.2951642,4.453972 15.7405614,4.675397 16.0543785,4.443777 L20.0715557,1.434638 L20.0715557,12.426201 L16.0543785,9.417061 C15.7405614,9.185442 15.2951642,9.406866 15.2926154,9.797783 L15.2926154,12.904095 L0.9557945,12.904095 L0.9557945,0.9567438 Z" id="Page-1"></path>
                        </g>
                    </g>
                </g>
            </g>
        </g>
    </g>
</svg>