<?xml version="1.0" encoding="UTF-8" standalone="no"?>
<svg width="16px" height="20px" viewBox="0 0 16 20" version="1.1" xmlns="http://www.w3.org/2000/svg" xmlns:xlink="http://www.w3.org/1999/xlink">
    <!-- Generator: Sketch 41.2 (35397) - http://www.bohemiancoding.com/sketch -->
    <title>Page 1</title>
    <desc>Created with Sketch.</desc>
    <defs></defs>
    <g id="Tablet/Desktop" stroke="none" stroke-width="1" fill="none" fill-rule="evenodd">
        <g id="Default" transform="translate(-102.000000, -395.000000)" fill="#000000">
            <g id="Group-5" transform="translate(82.000000, 342.000000)">
                <g id="Page-1" transform="translate(20.300781, 53.109375)">
                    <path d="M15.2146052,19.2581483 L0.615379482,19.2581483 C0.362768638,19.2581483 0.158821879,19.0542015 0.158821879,18.8020331 L0.158821879,0.553000973 C0.158821879,0.300832529 0.362768638,0.0968857704 0.615379482,0.0968857704 L15.2146052,0.0968857704 C15.4667736,0.0968857704 15.6707204,0.300832529 15.6707204,0.553000973 L15.6707204,18.8020331 C15.6707204,19.0542015 15.4667736,19.2581483 15.2146052,19.2581483 Z M1.07149468,18.3459179 L14.7580476,18.3459179 L14.7580476,1.00911617 L1.07149468,1.00911617 L1.07149468,18.3459179 Z" id="Fill-1"></path>
                    <path d="M12.6155006,3.77766024 L3.21448405,3.77766024 C2.96187321,3.77766024 2.75792645,3.57371348 2.75792645,3.32154504 C2.75792645,3.0693766 2.96187321,2.86542984 3.21448405,2.86542984 L12.6155006,2.86542984 C12.867669,2.86542984 13.0716158,3.0693766 13.0716158,3.32154504 C13.0716158,3.57371348 12.867669,3.77766024 12.6155006,3.77766024 Z" id="Fill-2"></path>
                    <path d="M12.6155006,5.76846374 L3.21448405,5.76846374 C3.03133013,5.76846374 2.88268347,5.61981708 2.88268347,5.43666316 C2.88268347,5.25350924 3.03133013,5.10486258 3.21448405,5.10486258 L12.6155006,5.10486258 C12.7986545,5.10486258 12.9473012,5.25350924 12.9473012,5.43666316 C12.9473012,5.61981708 12.8004241,5.76846374 12.6155006,5.76846374 Z" id="Fill-3"></path>
                    <path d="M12.6155006,7.88181226 L3.21448405,7.88181226 C3.03133013,7.88181226 2.88268347,7.7331656 2.88268347,7.55001168 C2.88268347,7.36685776 3.03133013,7.21821109 3.21448405,7.21821109 L12.6155006,7.21821109 C12.7986545,7.21821109 12.9473012,7.36685776 12.9473012,7.55001168 C12.9473012,7.7331656 12.8004241,7.88181226 12.6155006,7.88181226 Z" id="Fill-4"></path>
                    <path d="M12.6155006,9.99737278 L3.21448405,9.99737278 C3.03133013,9.99737278 2.88268347,9.84872612 2.88268347,9.6655722 C2.88268347,9.48241828 3.03133013,9.33377161 3.21448405,9.33377161 L12.6155006,9.33377161 C12.7986545,9.33377161 12.9473012,9.48241828 12.9473012,9.6655722 C12.9473012,9.84872612 12.8004241,9.99737278 12.6155006,9.99737278 Z" id="Fill-5"></path>
                    <path d="M12.6155006,12.1124909 L3.21448405,12.1124909 C3.03133013,12.1124909 2.88268347,11.9638442 2.88268347,11.7806903 C2.88268347,11.5975364 3.03133013,11.4488897 3.21448405,11.4488897 L12.6155006,11.4488897 C12.7986545,11.4488897 12.9473012,11.5975364 12.9473012,11.7806903 C12.9473012,11.9638442 12.8004241,12.1124909 12.6155006,12.1124909 Z" id="Fill-6"></path>
                    <path d="M12.6155006,14.227609 L3.21448405,14.227609 C3.03133013,14.227609 2.88268347,14.0789624 2.88268347,13.8958084 C2.88268347,13.7126545 3.03133013,13.5640079 3.21448405,13.5640079 L12.6155006,13.5640079 C12.7986545,13.5640079 12.9473012,13.7126545 12.9473012,13.8958084 C12.9473012,14.0789624 12.8004241,14.227609 12.6155006,14.227609 Z" id="Fill-7"></path>
                    <path d="M12.6155006,16.3427271 L3.21448405,16.3427271 C3.03133013,16.3427271 2.88268347,16.1940805 2.88268347,16.0109266 C2.88268347,15.8277726 3.03133013,15.679126 3.21448405,15.679126 L12.6155006,15.679126 C12.7986545,15.679126 12.9473012,15.8277726 12.9473012,16.0109266 C12.9473012,16.1940805 12.8004241,16.3427271 12.6155006,16.3427271 Z" id="Fill-8"></path>
                </g>
            </g>
        </g>
    </g>
</svg>